<svg width="30" height="30" viewBox="0 0 30 30" fill="none" xmlns="http://www.w3.org/2000/svg">
<g clip-path="url(#clip0_3556_1353)">
<path d="M9.16536 13.75L8.33203 16.3333H9.9987L9.16536 13.75Z" fill="white"/>
<path d="M25.2513 2.5H11.918V6.66667H15.2513V8.33333H4.41797C3.0013 8.33333 1.91797 9.41667 1.91797 10.8333V20C1.91797 21.4167 3.0013 22.5 4.41797 22.5H5.2513V26.75L10.5013 22.5H16.0846V16.6667H25.2513C26.668 16.6667 27.7513 15.5833 27.7513 14.1667V5C27.7513 3.58333 26.668 2.5 25.2513 2.5ZM10.918 19.0833L10.5013 17.75H7.91797L7.41797 19.0833H5.41797L8.16797 11.6667H10.168L12.918 19.0833H10.918ZM23.5846 12.5V14.1667C22.5013 14.1667 21.3346 13.8333 20.3346 13.3333C19.3346 13.8333 18.168 14.0833 17.0013 14.1667L16.918 12.5C17.5013 12.5 18.0846 12.4167 18.668 12.25C17.918 11.5 17.418 10.5833 17.168 9.58333H18.918C19.168 10.3333 19.668 10.9167 20.2513 11.4167C21.168 10.6667 21.7513 9.58333 21.8346 8.33333H16.8346V6.66667H19.3346V5H21.0013V6.66667H23.7513L23.8346 7.5C23.918 9.25 23.2513 11 22.0013 12.25C22.5846 12.4167 23.0846 12.5 23.5846 12.5Z" fill="white"/>
</g>
<defs>
<clipPath id="clip0_3556_1353">
<rect width="30" height="30" fill="white"/>
</clipPath>
</defs>
</svg>
