<svg width="30" height="30" viewBox="0 0 30 30" fill="none" xmlns="http://www.w3.org/2000/svg">
<path fill-rule="evenodd" clip-rule="evenodd" d="M9.84305 15C9.84305 14.7513 9.94183 14.5129 10.1176 14.3371C10.2935 14.1612 10.5319 14.0625 10.7806 14.0625H24.4968L22.0456 11.9625C21.952 11.8824 21.8751 11.7846 21.8193 11.6748C21.7635 11.565 21.7299 11.4452 21.7204 11.3224C21.7109 11.1996 21.7256 11.0762 21.7639 10.9591C21.8021 10.842 21.8629 10.7335 21.9431 10.64C22.0232 10.5464 22.1209 10.4695 22.2307 10.4137C22.3405 10.3579 22.4603 10.3243 22.5831 10.3148C22.7059 10.3053 22.8294 10.3201 22.9465 10.3583C23.0636 10.3965 23.172 10.4574 23.2656 10.5375L27.6406 14.2875C27.7435 14.3755 27.8261 14.4847 27.8828 14.6077C27.9394 14.7307 27.9688 14.8645 27.9688 15C27.9688 15.1354 27.9394 15.2692 27.8828 15.3922C27.8261 15.5152 27.7435 15.6245 27.6406 15.7125L23.2656 19.4625C23.0766 19.6242 22.8311 19.7043 22.5831 19.6851C22.3351 19.6659 22.1048 19.5489 21.9431 19.36C21.7813 19.171 21.7012 18.9255 21.7204 18.6775C21.7396 18.4295 21.8566 18.1992 22.0456 18.0375L24.4956 15.9375H10.7806C10.5319 15.9375 10.2935 15.8387 10.1176 15.6629C9.94183 15.4871 9.84305 15.2486 9.84305 15Z" fill="white"/>
<path d="M18.2812 10C18.2812 10.8775 18.2813 11.3162 18.07 11.6325C17.979 11.7685 17.8622 11.8853 17.7262 11.9763C17.41 12.1875 16.9713 12.1875 16.0938 12.1875H10.7812C10.0353 12.1875 9.31996 12.4838 8.79251 13.0113C8.26507 13.5387 7.96875 14.2541 7.96875 15C7.96875 15.7459 8.26507 16.4613 8.79251 16.9887C9.31996 17.5162 10.0353 17.8125 10.7812 17.8125H16.0938C16.9713 17.8125 17.41 17.8125 17.7262 18.0225C17.8623 18.1139 17.9791 18.2311 18.07 18.3675C18.2813 18.6838 18.2812 19.1225 18.2812 20C18.2812 23.535 18.2813 25.3038 17.1825 26.4013C16.085 27.5 14.3175 27.5 10.7825 27.5H9.5325C5.995 27.5 4.22875 27.5 3.13 26.4013C2.03125 25.3038 2.03125 23.535 2.03125 20V10C2.03125 6.465 2.03125 4.69625 3.13 3.59875C4.22875 2.50125 5.99625 2.5 9.53125 2.5H10.7812C14.3175 2.5 16.085 2.5 17.1825 3.59875C18.2813 4.69625 18.2812 6.465 18.2812 10Z" fill="white"/>
</svg>
