<svg width="14" height="13" viewBox="0 0 14 13" fill="none" xmlns="http://www.w3.org/2000/svg">
<g clip-path="url(#clip0_6598_1874)">
<path d="M8.19096 10.9927H1.56305C0.8754 10.9927 0.320312 10.4902 0.320312 9.86771V2.27771C0.320312 1.65521 0.8754 1.15271 1.56305 1.15271H10.6764C11.3641 1.15271 11.9192 1.65521 11.9192 2.27771V7.71521C11.9192 7.92521 11.7369 8.09021 11.5049 8.09021C11.2729 8.09021 11.0907 7.92521 11.0907 7.71521V2.27771C11.0907 2.06771 10.9084 1.90271 10.6764 1.90271H1.56305C1.33107 1.90271 1.1488 2.06771 1.1488 2.27771V9.86771C1.1488 10.0777 1.33107 10.2427 1.56305 10.2427H8.19096C8.42294 10.2427 8.60521 10.4077 8.60521 10.6177C8.60521 10.8277 8.42294 10.9927 8.19096 10.9927Z" fill="white"/>
<path d="M3.63427 3.20768C3.40229 3.20768 3.22003 3.04268 3.22003 2.83268V0.867676C3.22003 0.657676 3.40229 0.492676 3.63427 0.492676C3.86625 0.492676 4.04851 0.657676 4.04851 0.867676V2.83268C4.04851 3.04268 3.86625 3.20768 3.63427 3.20768ZM8.70463 3.20768C8.47265 3.20768 8.29038 3.04268 8.29038 2.83268V0.867676C8.29038 0.657676 8.47265 0.492676 8.70463 0.492676C8.9366 0.492676 9.11887 0.657676 9.11887 0.867676V2.83268C9.11887 3.04268 8.9366 3.20768 8.70463 3.20768ZM11.5049 4.99268H0.734557C0.50258 4.99268 0.320312 4.82768 0.320312 4.61768C0.320312 4.40768 0.50258 4.24268 0.734557 4.24268H11.5049C11.7369 4.24268 11.9192 4.40768 11.9192 4.61768C11.9192 4.82768 11.7369 4.99268 11.5049 4.99268ZM10.6764 12.4927C9.07745 12.4927 7.77672 11.3152 7.77672 9.86768C7.77672 8.42018 9.07745 7.24268 10.6764 7.24268C12.2754 7.24268 13.5761 8.42018 13.5761 9.86768C13.5761 11.3152 12.2754 12.4927 10.6764 12.4927ZM10.6764 7.99268C10.1271 7.99268 9.60028 8.19022 9.21185 8.54185C8.82342 8.89348 8.60521 9.37039 8.60521 9.86768C8.60521 10.365 8.82342 10.8419 9.21185 11.1935C9.60028 11.5451 10.1271 11.7427 10.6764 11.7427C11.2258 11.7427 11.7526 11.5451 12.141 11.1935C12.5294 10.8419 12.7477 10.365 12.7477 9.86768C12.7477 9.37039 12.5294 8.89348 12.141 8.54185C11.7526 8.19022 11.2258 7.99268 10.6764 7.99268Z" fill="white"/>
<path d="M11.5045 10.9927C11.4501 10.9933 11.3963 10.9836 11.3463 10.9642C11.2964 10.9448 11.2515 10.9162 11.2145 10.8802L10.386 10.1302C10.3079 10.0609 10.2633 9.96659 10.2617 9.86768V8.74268C10.2617 8.53268 10.444 8.36768 10.676 8.36768C10.9079 8.36768 11.0902 8.53268 11.0902 8.74268V9.71018L11.7944 10.3477C11.9601 10.4977 11.9601 10.7302 11.7944 10.8802C11.7116 10.9552 11.6039 10.9927 11.5045 10.9927Z" fill="white"/>
</g>
<defs>
<clipPath id="clip0_6598_1874">
<rect width="13.2558" height="12" fill="white" transform="translate(0.320312 0.492676)"/>
</clipPath>
</defs>
</svg>
