<svg width="39" height="37" viewBox="0 0 39 37" fill="none" xmlns="http://www.w3.org/2000/svg">
<mask id="mask0_6774_1454" style="mask-type:luminance" maskUnits="userSpaceOnUse" x="0" y="0" width="39" height="37">
<path d="M0 0H39V36.1724H0V0Z" fill="white"/>
</mask>
<g mask="url(#mask0_6774_1454)">
<path d="M37.9168 1.38962C37.7073 1.29289 32.6517 -0.857651 28.0121 1.40897C24.1366 3.29835 19.1971 8.54736 20.7899 13.8351C20.2772 14.9055 19.8968 16.0243 19.6324 17.185C19.1907 15.5826 17.0369 8.92137 11.372 6.4355C4.91709 3.60787 0.580535 7.21899 0.406428 7.37375C0.113025 7.62201 -0.00949489 8.00892 0.0872317 8.3797C0.119473 8.499 3.21794 19.9191 15.5989 19.9191C16.3372 19.9191 17.111 19.8804 17.9268 19.7934C17.9558 19.7934 17.9751 19.7773 18.0041 19.7773C18.4717 20.5769 18.8231 21.4281 19.0069 22.3115C18.4426 29.3145 18.778 35.0858 18.778 35.1535C18.8102 35.6887 19.2584 36.0982 19.7968 36.0982C19.8162 36.0982 19.8355 36.0982 19.8581 36.0982C20.4223 36.066 20.8479 35.5888 20.8157 35.031C20.8157 34.9601 20.3739 27.3251 21.3863 19.0293C21.5282 17.8685 21.8087 16.7626 22.2214 15.689C22.2504 15.689 22.2762 15.7051 22.3117 15.7051C22.3375 15.7051 22.3633 15.7051 22.3923 15.7051C22.5535 15.689 38.9647 14.3284 38.5423 2.26016C38.5294 1.87648 38.2909 1.52826 37.9362 1.3735L37.9168 1.38962ZM2.2668 8.53124C3.42751 7.82191 6.45182 6.47419 10.5498 8.27008C13.7353 9.66616 15.6569 12.7743 16.7048 15.1086C13.4226 12.0908 9.48902 10.3207 9.22463 10.2078C8.71521 9.97891 8.10906 10.2078 7.88014 10.7172C7.648 11.2267 7.88014 11.8167 8.39601 12.0456C8.46372 12.0779 13.4516 14.3155 16.6016 17.8879C6.53887 18.4263 3.08252 10.8527 2.2668 8.53124ZM23.2338 13.5997C24.8524 10.8656 27.4736 8.43774 31.1557 6.27429C31.6393 5.99379 31.7941 5.36829 31.5103 4.89433C31.2234 4.41715 30.5915 4.26239 30.111 4.54612C26.861 6.45485 24.3623 8.57315 22.5825 10.9172C23.079 7.4479 26.6192 4.3301 28.9213 3.20485C30.1788 2.59547 31.4975 2.3859 32.7001 2.3859C34.3154 2.3859 35.7308 2.75668 36.4917 3.00495C36.2596 11.1332 26.4612 13.1515 23.2274 13.5932L23.2338 13.5997Z" fill="#458A84"/>
</g>
</svg>
