<svg width="25" height="45" viewBox="0 0 25 45" fill="none" xmlns="http://www.w3.org/2000/svg">
<mask id="mask0_6770_1448" style="mask-type:luminance" maskUnits="userSpaceOnUse" x="0" y="0" width="25" height="45">
<path d="M0 0H25V44.3486H0V0Z" fill="white"/>
</mask>
<g mask="url(#mask0_6770_1448)">
<path d="M51.3497 30.5566H46.5489C46.2006 29.5775 45.421 28.7997 44.4385 28.4547C44.4419 28.3887 44.4453 28.3245 44.4453 28.2585C44.4453 25.7254 42.3789 23.6623 39.8389 23.6623V20.2144C39.8389 16.7326 40.5762 13.7361 41.9984 11.2334C43.0857 11.8793 44.3032 12.2277 45.5326 12.2277C47.2997 12.2277 49.0702 11.5547 50.4163 10.2103C52.9646 7.66701 52.4979 0.333071 52.437 -0.497219C52.3964 -1.06709 51.9416 -1.5169 51.3751 -1.55749C50.5465 -1.61498 43.199 -2.08677 40.6489 0.459897C38.1158 2.98797 37.9974 6.98722 40.2262 9.69285C38.8615 11.9334 38.0177 14.5342 37.6981 17.4682C37.2348 17.0166 36.7021 16.5347 36.0984 16.0308C36.7664 14.147 36.1559 11.9723 34.4429 10.7531C32.6217 9.46287 27.8835 9.92621 26.9551 10.0327C26.6287 10.0699 26.3362 10.2424 26.1451 10.5096C25.9557 10.7768 25.8897 11.1099 25.9625 11.4278C26.1688 12.3427 27.2882 16.9592 29.1111 18.2528C29.8991 18.8125 30.8191 19.1017 31.766 19.1017C32.0264 19.1017 32.2852 19.0831 32.5473 19.0357C33.4012 18.892 34.1723 18.5098 34.8082 17.9501C36.1475 19.0915 37.1147 20.1484 37.5341 20.6371V24.283C36.8374 24.6871 36.2506 25.2688 35.8481 25.9841C33.3099 26.2192 31.2435 28.1063 30.743 30.5549H21.302C20.8099 28.1638 18.8128 26.3105 16.2188 26.0213C15.791 25.2451 15.1366 24.6364 14.3688 24.2255C14.2082 22.2892 13.9512 20.2769 13.5402 18.3864C15.3615 17.321 16.2712 15.0973 15.5948 13.0123C14.9066 10.8884 10.8295 8.43473 10.0179 7.96632C9.73715 7.80229 9.39556 7.76509 9.08442 7.86655C8.77327 7.96632 8.52131 8.19292 8.38603 8.49223C8.00555 9.34788 6.14035 13.7192 6.8286 15.8414C7.45935 17.7844 9.26874 19.0222 11.2151 19.0222C11.2489 19.0222 11.2827 19.007 11.3182 19.0053C11.6379 20.5052 11.856 22.1049 12.0031 23.6759C9.55621 23.7824 7.5997 25.7846 7.5997 28.2535C7.5997 28.3194 7.5997 28.382 7.60478 28.4479C6.62399 28.7929 5.84443 29.5725 5.49608 30.5516H0.695279C0.145698 30.5516 -0.326096 30.9388 -0.43263 31.4765L-2.28429 40.7163C-2.43987 41.4857 -3.12135 42.0471 -3.90936 42.0471C-4.69907 42.0471 -5.38055 41.4857 -5.53612 40.7163L-7.38609 31.4765C-7.49263 30.9388 -7.9678 30.5516 -8.514 30.5516H-10.8172C-11.453 30.5516 -11.9688 31.0656 -11.9688 31.7014V43.1936C-11.9688 43.8277 -11.453 44.3418 -10.8172 44.3418H13.3593C10.8194 44.3418 8.75298 41.7647 8.75298 38.5957C8.75298 35.907 10.2478 33.663 12.2483 33.0373C12.2973 31.715 12.3548 29.055 12.1841 26.0179C12.1502 25.3855 12.6339 24.8427 13.2697 24.8089C13.8768 24.7683 14.4466 25.2587 14.4838 25.8911C14.6597 29.006 14.6056 31.6896 14.5532 33.0712C16.5131 33.7324 17.9639 35.9476 17.9639 38.5957C17.9639 41.7647 15.8975 44.3418 13.3593 44.3418H37.5341C37.3616 44.3418 37.1857 44.3012 37.0217 44.2217C36.4518 43.9376 36.2219 43.2477 36.5076 42.6795L38.6197 38.4604L38.3255 37.2886L37.4157 39.1081C37.2145 39.5106 36.8086 39.7422 36.3859 39.7422C36.2134 39.7422 36.0375 39.7016 35.8735 39.6222C35.3036 39.3381 35.0737 38.6481 35.3594 38.0783L36.3047 36.186L33.5805 37.275L31.4447 39.4057C31.2198 39.6306 30.9256 39.7422 30.6297 39.7422C30.3337 39.7422 30.0395 39.6306 29.8146 39.4057C29.3665 38.9576 29.3665 38.2305 29.8146 37.7807L32.1178 35.4826C32.2277 35.3726 32.3596 35.2864 32.5033 35.2255L37.5341 33.2183V27.1019C37.5341 26.4661 38.0499 25.952 38.6857 25.952C39.3215 25.952 39.8373 26.4661 39.8373 27.1019V33.2859L43.8061 35.2661C44.1054 35.4149 44.3269 35.6922 44.4081 36.0169L45.558 40.6131C45.7135 41.2286 45.3364 41.8509 44.7209 42.0065C44.1054 42.1553 43.4797 41.785 43.3258 41.1711L42.3028 37.0856L40.4088 36.1421L40.9533 38.315C41.0193 38.5822 40.9888 38.8612 40.8671 39.1081L38.5656 43.7043C38.3627 44.1067 37.9568 44.3401 37.5341 44.3401H51.3497C51.9855 44.3401 52.4996 43.8243 52.4996 43.1902V31.6981C52.4996 31.0622 51.9855 30.5482 51.3497 30.5482V30.5566ZM42.6511 6.58476L44.7463 4.49297C45.1961 4.04485 45.9232 4.04485 46.3764 4.49297C46.8245 4.94109 46.8245 5.66823 46.3764 6.11973L44.2812 8.21152C44.0563 8.43474 43.7621 8.54634 43.4662 8.54634C43.1703 8.54634 42.876 8.43474 42.6511 8.21152C42.203 7.76171 42.203 7.03626 42.6511 6.58476ZM35.0246 16.5939C34.7997 16.905 34.4497 17.0691 34.0929 17.0691C33.8561 17.0691 33.6211 16.9964 33.4165 16.8475C32.6826 16.3149 31.9504 15.8566 31.2401 15.4846C30.6753 15.1887 30.4606 14.4937 30.7565 13.9339C31.0507 13.3742 31.7491 13.1561 32.3105 13.452C33.1188 13.8764 33.9458 14.3939 34.7693 14.9908C35.2833 15.3645 35.3966 16.0832 35.0212 16.5973L35.0246 16.5939ZM12.2686 17.8638C12.1587 17.896 12.0488 17.9095 11.9389 17.9095C11.4417 17.9095 10.9834 17.5882 10.8346 17.0877C10.5928 16.2777 10.3256 15.5505 10.0348 14.9249C9.76759 14.3499 10.0179 13.6667 10.5962 13.3996C11.1711 13.1324 11.856 13.3827 12.1232 13.9576C12.4614 14.683 12.7708 15.5167 13.0448 16.4332C13.224 17.042 12.8774 17.6795 12.2686 17.8605V17.8638Z" fill="#458A84"/>
</g>
</svg>
