<svg width="28" height="33" viewBox="0 0 28 33" fill="none" xmlns="http://www.w3.org/2000/svg">
<path d="M14 1.5C14.1533 1.5 14.2915 1.55092 14.3916 1.62891C16.5239 3.30521 18.4992 5.14952 20.2959 7.1416L21.0547 8.00586C23.8757 11.3224 26.5 15.5439 26.5 19.7666C26.4999 22.8503 25.2047 25.8264 22.8691 28.0342C20.5306 30.2447 17.3415 31.5 14 31.5C10.6585 31.5 7.46941 30.2447 5.13086 28.0342C2.79528 25.8264 1.50013 22.8503 1.5 19.7666C1.5 15.5419 4.12543 11.3172 6.94824 7.99805C8.94127 5.67629 11.1734 3.54332 13.6084 1.62891C13.6834 1.5705 13.7796 1.52683 13.8877 1.50879L14 1.5ZM13.042 2.57715C10.9996 4.27163 9.11076 6.12664 7.39551 8.12207L7.39062 8.12793C4.59468 11.4169 2 15.5927 2 19.7666C2.00013 22.8247 3.28609 25.7398 5.54492 27.875C7.80098 30.0075 10.8439 31.1914 14 31.1914C17.1561 31.1914 20.199 30.0075 22.4551 27.875C24.7139 25.7398 25.9999 22.8247 26 19.7666C26 15.5927 23.4053 11.4169 20.6094 8.12793H20.6104L20.6045 8.12207L19.9531 7.37988C18.4146 5.66502 16.7451 4.05975 14.958 2.57715L14 1.78223L13.042 2.57715Z" fill="black" stroke="black" stroke-width="3"/>
</svg>
