<svg width="16" height="16" viewBox="0 0 16 16" fill="none" xmlns="http://www.w3.org/2000/svg">
<g clip-path="url(#clip0_6598_1785)">
<path d="M10.8709 7.67998C11.0961 6.94133 11.0961 6.15234 10.8709 5.4137C10.1319 5.18827 9.34252 5.18827 8.60352 5.4137M15.2172 15.2148L12.5487 12.5463" stroke="#28C878" stroke-linecap="round" stroke-linejoin="round"/>
<path d="M7.45554 14.3486C11.795 14.3486 14.2361 11.9074 14.2361 7.56687C14.2361 3.2263 11.795 0.785156 7.45554 0.785156C3.11497 0.786299 0.673828 3.22859 0.673828 7.56801C0.673828 11.9086 3.11497 14.3486 7.45554 14.3486Z" stroke="#28C878" stroke-linecap="round" stroke-linejoin="round"/>
<path d="M3.72461 9.51773C3.72461 9.51773 5.41604 7.27887 6.16689 7.34059C6.77032 7.38859 6.82404 8.67202 7.38404 8.44002C7.75775 8.28573 9.88575 6.35544 10.4092 5.87659" stroke="#28C878" stroke-linecap="round" stroke-linejoin="round"/>
</g>
<defs>
<clipPath id="clip0_6598_1785">
<rect width="16" height="16" fill="white"/>
</clipPath>
</defs>
</svg>
