<svg width="35" height="25" viewBox="0 0 35 25" fill="none" xmlns="http://www.w3.org/2000/svg">
<path d="M5.8625 13.6364C7.945 13.6364 8.3475 15.9091 11.69 15.9091C15.1025 15.9091 15.3475 13.6364 17.5175 13.6364C19.6 13.6364 20.0025 15.9091 23.345 15.9091C26.7575 15.9091 27.0025 13.6364 29.1725 13.6364C31.255 13.6364 31.6225 15.8636 34.965 15.9091V11.3636C32.8825 11.3636 32.48 9.09091 29.1375 9.09091C25.725 9.09091 25.48 11.3636 23.31 11.3636C21.2275 11.3636 20.825 9.09091 17.4825 9.09091C14.07 9.09091 13.825 11.3636 11.655 11.3636C9.5725 11.3636 9.17 9.09091 5.8275 9.09091C2.415 9.09091 2.17 11.3636 0 11.3636V15.9091C3.325 15.9091 3.7975 13.6364 5.8625 13.6364ZM29.1725 18.1818C25.76 18.1818 25.515 20.4545 23.345 20.4545C21.2625 20.4545 20.86 18.1818 17.5175 18.1818C14.105 18.1818 13.8425 20.4545 11.6725 20.4545C9.5025 20.4545 9.2575 18.1818 5.845 18.1818C2.4325 18.1818 2.17 20.4545 0 20.4545V25C3.4125 25 3.6925 22.7273 5.845 22.7273C8.015 22.7273 8.26 25 11.6725 25C15.085 25 15.3475 22.7273 17.5175 22.7273C19.6 22.7273 20.0025 25 23.345 25C26.74 25 27.0025 22.7273 29.1725 22.7273C31.255 22.7273 31.6575 25 35 25V20.4545C32.83 20.4545 32.585 18.1818 29.1725 18.1818ZM5.8625 4.54545C7.945 4.54545 8.3475 6.81818 11.69 6.81818C15.1025 6.81818 15.3475 4.54545 17.5175 4.54545C19.6 4.54545 20.0025 6.81818 23.345 6.81818C26.7575 6.81818 27.0025 4.54545 29.1725 4.54545C31.255 4.54545 31.6225 6.77273 34.965 6.81818V2.27273C32.8825 2.27273 32.48 0 29.1375 0C25.725 0 25.48 2.27273 23.31 2.27273C21.2275 2.27273 20.825 0 17.4825 0C14.07 0 13.825 2.27273 11.655 2.27273C9.5725 2.27273 9.17 0 5.8275 0C2.415 0 2.17 2.27273 0 2.27273V6.81818C3.325 6.81818 3.7975 4.54545 5.8625 4.54545Z" fill="black"/>
</svg>
