<svg width="34" height="44" viewBox="0 0 34 44" fill="none" xmlns="http://www.w3.org/2000/svg">
<mask id="mask0_6770_1430" style="mask-type:luminance" maskUnits="userSpaceOnUse" x="0" y="34" width="34" height="10">
<path d="M0 34.762H33.3907V43.4186H0V34.762Z" fill="white"/>
</mask>
<g mask="url(#mask0_6770_1430)">
<path d="M25.5482 35.8275C24.3371 35.8208 24.2967 37.4608 23.4458 38.0627C22.4737 38.9588 21.2936 39.0941 20.5359 39.0636L19.8589 38.5192C18.3682 40.6834 15.8869 41.7621 13.5391 41.2751C11.446 40.8423 10.1789 39.3003 9.49262 38.1168C9.56094 38.0762 9.63237 38.0458 9.69448 38.0086L9.15411 36.984C7.08583 38.4178 4.07967 37.8497 2.84057 35.8816C2.60144 35.5536 2.25051 35.3643 1.86543 35.3643H-0.0351562V36.541H1.86543C3.37472 38.526 5.90573 39.6351 8.4709 38.5936C10.6075 42.8644 16.303 44.1122 19.9241 40.1964C21.2812 40.3249 22.6849 40.2269 24.1476 38.9588C24.6973 38.4482 25.1259 37.826 25.4147 37.0956C25.4333 37.0449 25.483 37.0144 25.5389 37.0144H33.3493V35.8343H25.5482V35.8275Z" fill="#458A84"/>
</g>
<mask id="mask1_6770_1430" style="mask-type:luminance" maskUnits="userSpaceOnUse" x="5" y="0" width="29" height="27">
<path d="M5.86719 0H33.3884V26.9709H5.86719V0Z" fill="white"/>
</mask>
<g mask="url(#mask1_6770_1430)">
<path d="M7.39586 21.831C7.45797 22.3619 7.76231 22.8353 8.19709 23.0923L13.4982 26.3081C13.4765 25.3275 13.9051 23.8768 12.9765 23.2445L10.3834 21.3542C10.1225 21.1547 9.94861 20.8368 9.93308 20.4851L9.73743 16.823C9.7157 16.3597 9.95482 15.9201 10.3492 15.7375C11.5014 15.1829 13.7436 14.0873 14.8895 13.526C15.4019 13.2825 15.992 13.5125 16.2404 14.0569L16.9423 15.6327C17.2218 16.2616 17.1597 16.9921 16.7653 17.5466C16.0976 18.4968 15.0386 20.4243 15.3957 22.744C15.4951 23.1836 15.8119 25.0908 16.4205 24.4618L20.3242 19.0277C20.7745 18.0403 20.641 16.8838 21.3708 15.8288C22.1999 14.3714 23.2061 14.1414 24.1409 13.0797C25.0601 11.984 25.4142 10.2426 25.1812 7.89581C25.1595 7.68278 25.3086 7.48665 25.498 7.46298C25.6999 7.43931 25.8769 7.59824 25.8986 7.80451C25.9545 8.37598 25.9825 8.92041 25.9763 9.43101L32.6469 8.90688C32.7153 8.90012 32.7929 8.85954 32.8426 8.79867C32.8923 8.73781 32.914 8.65665 32.8985 8.57211L31.8675 0.260376C31.8581 0.114971 31.7246 0 31.5911 0C26.4949 0.929914 21.6378 2.81341 17.1752 5.58624C13.3367 7.98035 9.86476 10.9797 6.86171 14.5303C6.63811 14.7941 6.53874 15.1525 6.57911 15.494L7.39586 21.831Z" fill="#458A84"/>
</g>
<path d="M14.24 23.6164L14.4791 22.159C14.535 21.8378 14.4139 21.5132 14.1685 21.3373C13.535 20.7895 12.4325 20.3803 12.4667 19.4978V15.5786L10.6406 16.4679C10.5195 16.5187 10.4512 16.6505 10.4574 16.7858L10.6531 20.4547C10.6624 20.5562 10.7028 20.6542 10.7866 20.7084L13.3828 22.5986C13.712 22.8421 13.9853 23.1836 14.1344 23.5792L14.24 23.6164Z" fill="#458A84"/>
<path d="M10.7807 33.071C8.99499 33.1015 8.99499 35.9724 10.7807 36.0096C12.5663 35.9724 12.5663 33.1015 10.7807 33.071Z" fill="#458A84"/>
<path d="M15.5502 34.5352C17.3359 34.5048 17.3359 31.6339 15.5502 31.5967C13.7645 31.6339 13.7645 34.5048 15.5502 34.5352Z" fill="#458A84"/>
<path d="M17.623 35.4923C17.651 37.3995 20.2721 37.3995 20.3 35.4923C20.2721 33.5953 17.651 33.5953 17.623 35.4923Z" fill="#458A84"/>
<path d="M20.1714 30.366C20.1496 28.9356 18.1838 28.9356 18.1621 30.366C18.1901 31.793 20.1496 31.793 20.1714 30.366Z" fill="#458A84"/>
<path d="M13.8405 30.7446C13.8188 29.3176 11.8499 29.3176 11.8281 30.7446C11.8499 32.1716 13.8188 32.1716 13.8405 30.7446Z" fill="#458A84"/>
<path d="M16.5115 28.168C16.5053 27.2178 15.1761 27.2178 15.1699 28.168C15.1761 29.1182 16.5115 29.1182 16.5115 28.168Z" fill="#458A84"/>
</svg>
