<svg width="30" height="25" viewBox="0 0 30 25" fill="none" xmlns="http://www.w3.org/2000/svg">
<path d="M14.25 25C13 25 11.9375 24.5711 11.0625 23.7132C10.1875 22.8554 9.75 21.8137 9.75 20.5882H12.75C12.75 21.0049 12.894 21.3544 13.182 21.6368C13.47 21.9191 13.826 22.0598 14.25 22.0588C14.674 22.0578 15.0305 21.9167 15.3195 21.6353C15.6085 21.3539 15.752 21.0049 15.75 20.5882C15.748 20.1716 15.604 19.8225 15.318 19.5412C15.032 19.2598 14.676 19.1186 14.25 19.1176H0V16.1765H14.25C15.5 16.1765 16.5625 16.6054 17.4375 17.4632C18.3125 18.3211 18.75 19.3627 18.75 20.5882C18.75 21.8137 18.3125 22.8554 17.4375 23.7132C16.5625 24.5711 15.5 25 14.25 25ZM0 10.2941V7.35294H20.25C20.9 7.35294 21.4375 7.14461 21.8625 6.72794C22.2875 6.31128 22.5 5.78431 22.5 5.14706C22.5 4.5098 22.2875 3.98284 21.8625 3.56618C21.4375 3.14951 20.9 2.94118 20.25 2.94118C19.6 2.94118 19.0625 3.14951 18.6375 3.56618C18.2125 3.98284 18 4.5098 18 5.14706H15C15 3.70098 15.5065 2.48137 16.5195 1.48824C17.5325 0.4951 18.776 -0.000978942 20.25 1.45028e-06C21.724 0.000981842 22.968 0.49755 23.982 1.48971C24.996 2.48186 25.502 3.70098 25.5 5.14706C25.498 6.59314 24.992 7.81275 23.982 8.80588C22.972 9.79902 21.728 10.2951 20.25 10.2941H0ZM24.75 22.0588V19.1176C25.4 19.1176 25.9375 18.9093 26.3625 18.4926C26.7875 18.076 27 17.549 27 16.9118C27 16.2745 26.7875 15.7475 26.3625 15.3309C25.9375 14.9142 25.4 14.7059 24.75 14.7059H0V11.7647H24.75C26.225 11.7647 27.469 12.2613 28.482 13.2544C29.495 14.2475 30.001 15.4667 30 16.9118C29.999 18.3569 29.493 19.5765 28.482 20.5706C27.471 21.5647 26.227 22.0608 24.75 22.0588Z" fill="black"/>
</svg>
