<svg width="50" height="50" viewBox="0 0 50 50" fill="none" xmlns="http://www.w3.org/2000/svg">
<path d="M37.5 31.2501C39.1576 31.2501 40.7473 31.9086 41.9194 33.0807C43.0916 34.2528 43.75 35.8425 43.75 37.5001C43.75 39.1577 43.0916 40.7474 41.9194 41.9195C40.7473 43.0916 39.1576 43.7501 37.5 43.7501C36.2063 43.7538 34.9435 43.3546 33.8869 42.608C32.8304 41.8613 32.0326 40.8042 31.6042 39.5834H29.1667V35.4167H31.6042C32.4584 32.9792 34.7709 31.2501 37.5 31.2501ZM37.5 35.4167C36.9475 35.4167 36.4176 35.6362 36.0269 36.0269C35.6362 36.4176 35.4167 36.9475 35.4167 37.5001C35.4167 38.0526 35.6362 38.5825 36.0269 38.9732C36.4176 39.3639 36.9475 39.5834 37.5 39.5834C38.0526 39.5834 38.5825 39.3639 38.9732 38.9732C39.3639 38.5825 39.5834 38.0526 39.5834 37.5001C39.5834 36.9475 39.3639 36.4176 38.9732 36.0269C38.5825 35.6362 38.0526 35.4167 37.5 35.4167ZM37.5 16.6667C38.2902 16.6667 39.0479 16.3529 39.6066 15.7942C40.1653 15.2355 40.4792 14.4777 40.4792 13.6876C40.4792 12.8975 40.1653 12.1397 39.6066 11.581C39.0479 11.0223 38.2902 10.7084 37.5 10.7084C36.7099 10.7084 35.9521 11.0223 35.3934 11.581C34.8347 12.1397 34.5209 12.8975 34.5209 13.6876C34.5209 14.4777 34.8347 15.2355 35.3934 15.7942C35.9521 16.3529 36.7099 16.6667 37.5 16.6667ZM37.5 5.35425C39.7102 5.35425 41.8298 6.23222 43.3926 7.79502C44.9554 9.35783 45.8334 11.4774 45.8334 13.6876C45.8334 19.9167 37.5 29.1667 37.5 29.1667C37.5 29.1667 29.1667 19.9167 29.1667 13.6876C29.1667 11.4774 30.0447 9.35783 31.6075 7.79502C33.1703 6.23222 35.2899 5.35425 37.5 5.35425ZM18.3959 35.4167H20.8334V39.5834H18.3959C17.9675 40.8042 17.1697 41.8613 16.1131 42.608C15.0566 43.3546 13.7938 43.7538 12.5 43.7501C10.8424 43.7501 9.25271 43.0916 8.08061 41.9195C6.90851 40.7474 6.25003 39.1577 6.25003 37.5001C6.25003 34.7709 7.97919 32.4584 10.4167 31.6042V29.1667H14.5834V31.6042C16.3542 32.2292 17.7709 33.6459 18.3959 35.4167ZM12.5 35.4167C11.9475 35.4167 11.4176 35.6362 11.0269 36.0269C10.6362 36.4176 10.4167 36.9475 10.4167 37.5001C10.4167 38.0526 10.6362 38.5825 11.0269 38.9732C11.4176 39.3639 11.9475 39.5834 12.5 39.5834C13.0526 39.5834 13.5825 39.3639 13.9732 38.9732C14.3639 38.5825 14.5834 38.0526 14.5834 37.5001C14.5834 36.9475 14.3639 36.4176 13.9732 36.0269C13.5825 35.6362 13.0526 35.4167 12.5 35.4167ZM12.5 6.25008C14.1576 6.25008 15.7473 6.90856 16.9194 8.08066C18.0915 9.25277 18.75 10.8425 18.75 12.5001C18.75 15.2292 17.0209 17.5417 14.5834 18.3959V20.8334H10.4167V18.3959C9.19591 17.9676 8.1388 17.1697 7.39213 16.1132C6.64546 15.0566 6.24628 13.7938 6.25003 12.5001C6.25003 10.8425 6.90851 9.25277 8.08061 8.08066C9.25271 6.90856 10.8424 6.25008 12.5 6.25008ZM12.5 10.4167C11.9475 10.4167 11.4176 10.6362 11.0269 11.0269C10.6362 11.4176 10.4167 11.9475 10.4167 12.5001C10.4167 13.0526 10.6362 13.5825 11.0269 13.9732C11.4176 14.3639 11.9475 14.5834 12.5 14.5834C13.0526 14.5834 13.5825 14.3639 13.9732 13.9732C14.3639 13.5825 14.5834 13.0526 14.5834 12.5001C14.5834 11.9475 14.3639 11.4176 13.9732 11.0269C13.5825 10.6362 13.0526 10.4167 12.5 10.4167ZM22.9167 39.5834V35.4167H27.0834V39.5834H22.9167ZM14.5834 27.0834H10.4167V22.9167H14.5834V27.0834Z" fill="#075A53"/>
</svg>
